<svg width="362" height="444" viewBox="0 0 362 444" fill="none" xmlns="http://www.w3.org/2000/svg">
<path d="M44.404 440.996L44.4789 441H44.5539H44.7938C49.6179 441 54.9276 441.001 59.2915 439.91L59.3833 439.887L59.4735 439.858L59.5064 439.847C81.5002 432.848 103.561 425.828 125.631 417.802C136.817 413.805 147.427 407.911 157.646 402.233C160.466 400.667 163.256 399.116 166.021 397.627C194.101 383.583 220.384 368.436 243.686 347.165C265.876 327.995 285.042 306.805 302.183 282.602L302.229 282.537L302.272 282.47C314.386 263.287 324.674 241.796 326.739 218.093C328.289 202.553 325.457 189.08 318.382 178.266C311.304 167.447 300.169 159.579 285.643 154.909L285.579 154.889L285.514 154.871C276.552 152.427 265.768 151.283 256.64 150.908L344.92 59.7687L345.041 59.6442L345.147 59.5066C351.071 51.7778 355.143 44.0783 357.27 37.0479C359.383 30.0639 359.653 23.4688 357.565 18.1738C355.405 12.6963 350.874 9.01626 344.42 7.861C338.138 6.73648 330.148 8.00346 320.623 11.8652L320.577 11.8839L320.532 11.904C311.367 15.978 302.235 21.0548 294.142 26.1132L294.09 26.1455L294.04 26.1798C252.693 54.4204 218.465 89.6795 187.342 127.833C162.32 157.864 138.25 187.952 116.169 220.069C103.068 237.545 91.5132 256.123 80.0946 274.481C75.7507 281.465 71.4266 288.417 67.0447 295.265L67.0361 295.278L67.0275 295.292L47.5715 326.426C49.0549 322.235 50.6876 318.148 52.3429 314.009L52.3459 314.002C77.2489 251.238 112.132 194.404 148.162 137.349C167.093 107.454 188.023 79.7925 206.458 57.9922C224.954 36.1186 240.767 20.3502 249.455 14.0748L250.698 13.1767V11.6429C250.698 9.52893 250.069 7.65679 248.876 6.17784C247.7 4.72096 246.122 3.824 244.498 3.37285C241.384 2.50778 237.741 3.16803 235.022 5.14254C230.876 7.65924 227.858 10.925 225.485 13.4937C224.793 14.2426 224.155 14.9322 223.561 15.5267L223.457 15.6305L223.364 15.7438C217.417 22.985 211.317 30.2476 205.175 37.56C187.659 58.4141 169.802 79.6736 154.178 101.996C111.085 163.136 71.9389 226.367 41.809 294.67L41.7926 294.707L41.7772 294.745C39.2882 300.83 36.5387 307.382 33.6879 314.175C26.2804 331.827 18.1887 351.11 12.2039 368.069C8.06136 379.808 4.85385 390.632 3.59045 399.169C2.96042 403.427 2.78288 407.307 3.31252 410.528C3.8405 413.739 5.15501 416.736 7.90657 418.505L8.64779 418.982H9.52899C11.3214 418.982 12.8672 417.954 13.9514 417.064C15.1567 416.073 16.4271 414.708 17.7359 413.105C20.3652 409.885 23.4557 405.321 26.8685 399.832C33.7079 388.831 42.0654 373.745 50.9441 357.361C54.1485 351.448 57.4206 345.366 60.7163 339.241C75.7478 311.304 91.2707 282.453 103.095 264.51C135.053 216.566 168.991 170.646 206.906 126.736C230.931 100.705 254.79 74.8651 281.596 53.0178C288.425 47.6539 296.023 42.9904 303.881 38.3749C305.435 37.4623 307.001 36.5505 308.573 35.6352C314.822 31.9961 321.162 28.3044 327.179 24.3065C333.329 21.7397 337.339 21.3593 339.706 21.926C340.839 22.1973 341.57 22.6764 342.067 23.2368C342.577 23.8123 342.983 24.6369 343.189 25.8006C343.614 28.2088 343.102 31.696 341.409 35.863C339.742 39.9666 337.036 44.4579 333.456 48.7552L333.396 48.8266L333.341 48.9017C322.424 63.7908 310.539 77.6536 296.693 90.5125L296.652 90.5503L296.613 90.5896C276.67 110.535 255.729 129.485 233.79 147.437L233.735 147.482L233.683 147.529C225.57 154.831 214.766 162.309 203.009 170.446C200.525 172.166 197.998 173.915 195.445 175.698C180.928 185.836 165.7 196.99 153.468 209.733L150.863 212.447L154.089 214.383C154.333 214.529 154.587 214.687 154.851 214.851C156.944 216.154 159.685 217.859 163.502 217.553C167.576 217.227 172.423 214.719 179.43 209.222C192.396 200.244 205.49 191.177 217.596 181.087L217.624 181.064L217.651 181.04C232.883 167.711 252.027 163.788 271.565 164.765L271.572 164.765C281.502 165.238 291.572 168.786 299.114 175.517C306.591 182.19 311.746 192.127 311.746 205.806V205.921L311.755 206.036C312.716 218.536 310.809 229.072 305.972 240.682L305.956 240.72L305.941 240.759C291.174 279.16 265.546 308.802 234.722 335.652C190.044 374.377 138.372 401.228 82.6176 420.147L82.5606 420.166L82.5045 420.187C70.0346 424.984 56.5225 426.967 42.7806 427.97C38.6087 427.007 36.3574 425.938 35.0904 424.433C33.8618 422.974 33.0571 420.472 33.5316 415.252L33.5776 414.746L33.4544 414.253C32.9505 412.238 32.3711 410.38 31.6477 409.114C31.332 408.561 30.6766 407.542 29.4949 407.025C28.8005 406.721 27.9808 406.619 27.1468 406.841C26.3661 407.048 25.7972 407.478 25.4203 407.855L25.1424 408.133L24.9454 408.474C19.3475 418.144 17.7428 426.395 21.9503 432.455C23.9912 435.394 27.1504 437.387 30.9125 438.705C34.6746 440.022 39.2394 440.738 44.404 440.996Z" fill="#F9104E" stroke="#F9104E" stroke-width="6"/>
</svg>
